<svg width="25" height="24" viewBox="0 0 25 24" fill="none" xmlns="http://www.w3.org/2000/svg">
<path d="M12.5 8.4C11.5054 8.4 10.5516 8.77928 9.84835 9.45442C9.14509 10.1295 8.75 11.0452 8.75 12C8.75 12.9548 9.14509 13.8705 9.84835 14.5456C10.5516 15.2207 11.5054 15.6 12.5 15.6C13.4946 15.6 14.4484 15.2207 15.1517 14.5456C15.8549 13.8705 16.25 12.9548 16.25 12C16.25 11.0452 15.8549 10.1295 15.1517 9.45442C14.4484 8.77928 13.4946 8.4 12.5 8.4ZM12.5 6C14.1576 6 15.7473 6.63214 16.9194 7.75736C18.0915 8.88258 18.75 10.4087 18.75 12C18.75 13.5913 18.0915 15.1174 16.9194 16.2426C15.7473 17.3679 14.1576 18 12.5 18C10.8424 18 9.25268 17.3679 8.08058 16.2426C6.90848 15.1174 6.25 13.5913 6.25 12C6.25 10.4087 6.90848 8.88258 8.08058 7.75736C9.25268 6.63214 10.8424 6 12.5 6ZM20.625 5.7C20.625 6.09783 20.4604 6.47936 20.1674 6.76066C19.8743 7.04197 19.4769 7.2 19.0625 7.2C18.6481 7.2 18.2507 7.04197 17.9576 6.76066C17.6646 6.47936 17.5 6.09783 17.5 5.7C17.5 5.30218 17.6646 4.92064 17.9576 4.63934C18.2507 4.35804 18.6481 4.2 19.0625 4.2C19.4769 4.2 19.8743 4.35804 20.1674 4.63934C20.4604 4.92064 20.625 5.30218 20.625 5.7ZM12.5 2.4C9.4075 2.4 8.9025 2.4084 7.46375 2.4696C6.48375 2.514 5.82625 2.64 5.21625 2.868C4.67375 3.0696 4.2825 3.3108 3.86625 3.7116C3.47501 4.07448 3.17419 4.5175 2.98625 5.0076C2.74875 5.5956 2.6175 6.2256 2.5725 7.1652C2.5075 8.49 2.5 8.9532 2.5 12C2.5 14.9688 2.50875 15.4536 2.5725 16.8348C2.61875 17.7744 2.75 18.4068 2.98625 18.9912C3.19875 19.5132 3.44875 19.8888 3.86375 20.2872C4.285 20.6904 4.67625 20.9316 5.21375 21.1308C5.83125 21.36 6.48875 21.4872 7.46375 21.5304C8.84375 21.5928 9.32625 21.6 12.5 21.6C15.5925 21.6 16.0975 21.5916 17.5362 21.5304C18.5138 21.486 19.1725 21.36 19.7825 21.1332C20.3237 20.9304 20.7175 20.6892 21.1325 20.2908C21.5538 19.8864 21.805 19.5108 22.0125 18.9948C22.25 18.4032 22.3825 17.7708 22.4275 16.8348C22.4925 15.51 22.5 15.0468 22.5 12C22.5 9.0312 22.4912 8.5464 22.4275 7.1652C22.3812 6.2268 22.25 5.5932 22.0125 5.0076C21.8241 4.518 21.5238 4.07515 21.1337 3.7116C20.7559 3.33582 20.2944 3.047 19.7837 2.8668C19.1712 2.6388 18.5138 2.5128 17.5362 2.4696C16.1562 2.4072 15.6737 2.4 12.5 2.4ZM12.5 0C15.8962 0 16.32 0.0119999 17.6525 0.0719999C18.9837 0.132 19.89 0.3324 20.6875 0.63C21.5125 0.9348 22.2075 1.3476 22.9025 2.0136C23.5381 2.61348 24.0299 3.33911 24.3438 4.14C24.6525 4.9044 24.8625 5.7756 24.925 7.0536C24.9838 8.3328 25 8.7396 25 12C25 15.2604 24.9875 15.6672 24.925 16.9464C24.8625 18.2244 24.6525 19.0944 24.3438 19.86C24.0308 20.6613 23.5389 21.3871 22.9025 21.9864C22.2775 22.5964 21.5216 23.0685 20.6875 23.37C19.8912 23.6664 18.9837 23.868 17.6525 23.928C16.32 23.9844 15.8962 24 12.5 24C9.10375 24 8.68 23.988 7.3475 23.928C6.01625 23.868 5.11 23.6664 4.3125 23.37C3.47791 23.0694 2.72191 22.5971 2.0975 21.9864C1.46176 21.3866 0.969914 20.661 0.65625 19.86C0.34625 19.0956 0.1375 18.2244 0.0749999 16.9464C0.0162499 15.6672 0 15.2604 0 12C0 8.7396 0.0124999 8.3328 0.0749999 7.0536C0.1375 5.7744 0.34625 4.9056 0.65625 4.14C0.969045 3.33862 1.461 2.61279 2.0975 2.0136C2.72209 1.40308 3.47804 0.930875 4.3125 0.63C5.11 0.3324 6.015 0.132 7.3475 0.0719999C8.68 0.0155999 9.10375 0 12.5 0Z" fill="#F20C25"/>
</svg>
