<svg width="1200" height="620" viewBox="0 0 1200 620" fill="none" xmlns="http://www.w3.org/2000/svg">
<rect width="1200" height="620" fill="#F9FAFF"/>
<path d="M485.933 88.7236C496.63 107.79 505.904 130.666 514.704 152.669C505.984 155.092 497.253 157.533 488.992 160.449L489.183 161.608L564.054 162.594V211.104L565.142 209.528C589.394 174.375 609.704 132.813 621.661 89.752C642.19 96.0964 663.6 101.953 684.575 108.769C680.635 124.37 675.744 136.624 670.825 150.893L670.554 151.681L671.387 151.684L817.252 152.178V216.047L756.287 215.556L754.704 215.543L755.885 216.597C769.599 228.846 784.758 240.127 799.903 251.375C774.341 267.545 747.318 281.301 720.278 294.088L719.881 294.275L719.943 294.711C721.932 308.637 724.919 323.095 729.91 335.576L730.233 336.385L730.87 335.791C745.119 322.52 758.913 308.731 769.82 292.996L819.454 330.965C798.294 354.522 778.09 371.766 755.424 389.018L754.999 389.341L755.273 389.799C771.6 417.019 798.217 440.77 824.395 457.656C807.348 477.266 794.599 498.769 782.393 519.284C754.944 502.489 734.315 480.335 719.062 456.216L718.003 454.543L717.961 456.521L716.978 502.217L581.912 532.299L558.991 469.367L587.113 463.548L587.589 463.449V275.688L594.594 273.818L595.767 273.506L594.803 272.769C578.081 259.977 557.506 250.597 536.903 243.659L551.205 227.445L552.06 226.477L550.768 226.455L491.187 225.462L490.589 225.451L490.58 226.05L490.084 260.816L490.075 261.422H564.543L563.558 349.688L559.09 430.139C557.103 463.433 550.645 501.342 518.191 519.051C506.519 525.375 493.867 527.863 480.66 529.356C473.2 506.152 462.341 484.94 453.434 471.573L452.843 470.688L452.396 471.653C443.081 491.759 433.291 510.874 420.634 529.484C404.555 508.548 387.987 487.624 373.77 474.777C412.856 412.791 427.707 363.054 429.195 280.206L430.188 225.572L430.199 224.965H379.076V162.583H451.739L451.536 161.831C446.608 143.59 438.758 126.826 428.49 108.193L485.933 88.7236ZM488.102 325.326C483.139 369.014 473.712 421.095 457.356 462.247L457.011 463.117L457.946 463.062C466.333 462.569 475.363 462.567 483.378 460.562L483.394 460.559L483.408 460.554C490.108 458.492 494.676 452.339 497.189 446.306L497.218 446.236L497.229 446.162C502.695 408.39 505.179 365.648 505.676 325.4L505.683 324.797H488.162L488.102 325.326ZM666.262 317.372C661.255 318.875 656.753 320.877 652.289 322.861L651.935 323.019V452.27L652.643 452.136C670.987 448.664 687.396 446.174 707.762 441.702L708.525 441.534L708.162 440.842C687.832 402.151 673.467 361.984 667.023 317.857L666.924 317.173L666.262 317.372ZM639.105 216.331C628.194 235.185 616.302 253.027 601.951 268.878L600.596 270.375L602.548 269.854C647.257 257.925 691.996 241.517 731.777 218.138L733.628 217.05L731.481 217.027L639.629 216.034L639.28 216.03L639.105 216.331Z" stroke="#010000" stroke-width="1.19302"/>
<g clip-path="url(#clip0_539_49)">
<path d="M726.394 324.869C722.995 319.156 718.427 314.671 712.69 311.404C706.952 308.137 700.577 306.371 693.563 306.106V304.514C699.889 303.237 705.41 300.94 710.136 297.623C714.862 294.307 718.543 290.169 721.171 285.228C723.799 280.286 725.117 274.814 725.117 268.811C725.117 260.519 722.954 253.322 718.626 247.211C714.298 241.101 707.898 236.374 699.424 233.025C690.951 229.675 680.497 228 668.069 228H597.307V391.217H674.129C685.977 391.217 696.174 389.228 704.73 385.239C713.287 381.251 719.886 375.787 724.537 368.822C729.188 361.866 731.51 353.922 731.51 344.993C731.51 337.29 729.81 330.582 726.411 324.869H726.394ZM641.605 262.75H679.535V293.992H641.605V262.75ZM684.601 355.83H641.613V321.403H684.601V355.83Z" fill="#F20C25"/>
<path d="M830.518 279.747C830.377 278.321 829.764 277.202 828.694 276.414C827.616 275.618 826.157 275.228 824.316 275.228C823.065 275.228 822.003 275.402 821.141 275.751C820.279 276.099 819.616 276.58 819.168 277.193C818.712 277.807 818.488 278.503 818.488 279.283C818.463 279.929 818.604 280.502 818.903 280.982C819.201 281.463 819.624 281.886 820.155 282.234C820.685 282.583 821.299 282.881 821.995 283.138C822.692 283.395 823.438 283.611 824.225 283.785L827.492 284.564C829.075 284.921 830.526 285.394 831.853 285.982C833.179 286.571 834.323 287.301 835.293 288.163C836.263 289.025 837.018 290.045 837.557 291.214C838.096 292.383 838.369 293.726 838.378 295.244C838.369 297.466 837.806 299.39 836.686 301.015C835.567 302.64 833.959 303.9 831.861 304.796C829.764 305.691 827.235 306.13 824.283 306.13C821.332 306.13 818.803 305.683 816.631 304.779C814.459 303.883 812.767 302.549 811.557 300.782C810.347 299.016 809.708 296.827 809.65 294.216H817.079C817.162 295.434 817.51 296.446 818.132 297.259C818.753 298.071 819.582 298.676 820.635 299.083C821.688 299.489 822.866 299.696 824.192 299.696C825.519 299.696 826.621 299.506 827.591 299.132C828.553 298.751 829.299 298.229 829.838 297.557C830.369 296.885 830.634 296.106 830.634 295.235C830.634 294.423 830.394 293.735 829.913 293.179C829.432 292.624 828.735 292.151 827.823 291.761C826.911 291.372 825.784 291.015 824.466 290.7L820.511 289.705C817.452 288.959 815.031 287.798 813.257 286.214C811.482 284.631 810.604 282.5 810.612 279.813C810.604 277.616 811.184 275.693 812.378 274.051C813.563 272.409 815.197 271.124 817.278 270.204C819.359 269.283 821.721 268.819 824.375 268.819C827.028 268.819 829.424 269.283 831.438 270.204C833.453 271.124 835.02 272.409 836.147 274.051C837.267 275.693 837.847 277.6 837.888 279.764H830.526L830.518 279.747Z" fill="#F20C25"/>
<path d="M842.133 275.634V269.3H871.955V275.634H860.837V305.625H853.251V275.634H842.133Z" fill="#F20C25"/>
<path d="M899.323 269.3H907V292.889C907 295.534 906.37 297.856 905.11 299.837C903.85 301.827 902.092 303.369 899.837 304.472C897.582 305.575 894.945 306.13 891.944 306.13C888.943 306.13 886.29 305.575 884.035 304.472C881.78 303.369 880.022 301.819 878.77 299.837C877.518 297.847 876.888 295.534 876.888 292.889V269.3H884.565V292.234C884.565 293.619 884.872 294.846 885.477 295.924C886.082 297.002 886.945 297.847 888.056 298.461C889.167 299.074 890.46 299.381 891.936 299.381C893.411 299.381 894.721 299.074 895.824 298.461C896.927 297.847 897.789 297.002 898.394 295.924C898.999 294.846 899.306 293.619 899.306 292.234V269.3H899.323Z" fill="#F20C25"/>
<path d="M822.525 349.918H809.65V313.601H822.633C826.289 313.601 829.432 314.322 832.068 315.773C834.705 317.224 836.736 319.297 838.162 322.009C839.588 324.72 840.301 327.954 840.301 331.726C840.301 335.499 839.588 338.757 838.162 341.477C836.736 344.197 834.696 346.286 832.043 347.737C829.39 349.188 826.215 349.918 822.525 349.918ZM817.327 343.334H822.202C824.474 343.334 826.381 342.928 827.939 342.115C829.49 341.303 830.667 340.051 831.446 338.343C832.234 336.635 832.624 334.429 832.624 331.718C832.624 329.007 832.234 326.843 831.446 325.135C830.659 323.435 829.49 322.183 827.948 321.378C826.397 320.574 824.49 320.176 822.219 320.176H817.327V343.334Z" fill="#F20C25"/>
<path d="M853.641 313.601V349.918H845.963V313.601H853.641Z" fill="#F20C25"/>
<path d="M893.345 331.759C893.345 335.723 892.599 339.089 891.098 341.867C889.606 344.644 887.566 346.767 884.996 348.226C882.426 349.686 879.541 350.415 876.332 350.415C873.124 350.415 870.206 349.686 867.644 348.218C865.082 346.75 863.051 344.628 861.558 341.85C860.066 339.072 859.328 335.706 859.328 331.759C859.328 327.813 860.074 324.43 861.558 321.652C863.051 318.874 865.074 316.752 867.644 315.293C870.206 313.833 873.107 313.104 876.332 313.104C879.558 313.104 882.426 313.833 884.996 315.293C887.566 316.752 889.598 318.874 891.098 321.652C892.591 324.43 893.345 327.796 893.345 331.759ZM885.56 331.759C885.56 329.197 885.179 327.033 884.416 325.267C883.653 323.509 882.584 322.166 881.199 321.262C879.815 320.35 878.198 319.894 876.341 319.894C874.484 319.894 872.867 320.35 871.482 321.262C870.098 322.174 869.028 323.509 868.266 325.267C867.503 327.025 867.121 329.189 867.121 331.759C867.121 334.33 867.503 336.486 868.266 338.252C869.028 340.009 870.098 341.353 871.482 342.256C872.867 343.168 874.484 343.624 876.341 343.624C878.198 343.624 879.815 343.168 881.199 342.256C882.584 341.344 883.653 340.009 884.416 338.252C885.179 336.494 885.56 334.33 885.56 331.759Z" fill="#F20C25"/>
<path d="M292 228H429.743V266.522H380.131V391.217H341.612V266.522H292V228Z" fill="#F20C25"/>
<path d="M440.628 228H586.421V391.217H548.126V333.981H503.298C502.867 342.248 500.935 350.05 497.528 357.372C494.12 364.701 489.585 371.044 483.931 376.417C478.277 381.79 471.744 386.027 464.348 389.145C456.953 392.262 449.044 393.821 440.628 393.821V355.299C443.671 355.299 446.573 354.752 449.334 353.665C452.086 352.579 454.557 351.054 456.729 349.097C458.901 347.14 460.684 344.893 462.06 342.348C463.436 339.81 464.274 337.016 464.564 333.965H440.628V299.365H464.779V266.506H440.628V228ZM548.118 266.522H503.29V299.381H548.118V266.522Z" fill="#F20C25"/>
<path d="M786.684 228V391.217H742.379V228H786.684Z" fill="#F20C25"/>
</g>
<defs>
<clipPath id="clip0_539_49">
<rect width="615" height="165.829" fill="white" transform="translate(292 228)"/>
</clipPath>
</defs>
</svg>
