<svg width="25" height="25" viewBox="0 0 25 25" fill="none" xmlns="http://www.w3.org/2000/svg">
<path d="M21.2219 3.63276C20.0773 2.47692 18.714 1.56046 17.2116 0.936781C15.7092 0.313101 14.0977 -0.00532192 12.471 6.72799e-05C5.65502 6.72799e-05 0.0998681 5.55522 0.0998681 12.3712C0.0998681 14.5558 0.674108 16.678 1.74769 18.5505L0 24.967L6.55383 23.2443C8.36393 24.2305 10.3987 24.7548 12.471 24.7548C19.287 24.7548 24.8421 19.1997 24.8421 12.3837C24.8421 9.07556 23.5563 5.96717 21.2219 3.63276ZM12.471 22.6576C10.6234 22.6576 8.81334 22.1583 7.22794 21.222L6.85343 20.9973L2.95859 22.0209L3.99471 18.226L3.74505 17.839C2.71834 16.2 2.17328 14.3052 2.17213 12.3712C2.17213 6.7037 6.79101 2.08481 12.4585 2.08481C15.2049 2.08481 17.789 3.15839 19.7239 5.10581C20.6822 6.05938 21.4415 7.19373 21.958 8.44306C22.4744 9.69239 22.7377 11.0318 22.7324 12.3837C22.7574 18.0512 18.1385 22.6576 12.471 22.6576ZM18.1135 14.9678C17.8014 14.818 16.2785 14.069 16.0038 13.9566C15.7167 13.8567 15.517 13.8068 15.3048 14.1064C15.0925 14.4185 14.5058 15.1176 14.331 15.3173C14.1563 15.5295 13.969 15.5545 13.6569 15.3922C13.3448 15.2424 12.3462 14.9053 11.1727 13.8567C10.2489 13.0328 9.63725 12.0217 9.45 11.7096C9.27523 11.3975 9.42503 11.2352 9.58731 11.0729C9.72463 10.9356 9.8994 10.7109 10.0492 10.5361C10.199 10.3614 10.2614 10.224 10.3613 10.0243C10.4612 9.81209 10.4112 9.63732 10.3363 9.48752C10.2614 9.33771 9.63725 7.81473 9.38758 7.19055C9.13791 6.59135 8.87576 6.66625 8.6885 6.65376H8.0893C7.87708 6.65376 7.55251 6.72866 7.26539 7.04075C6.99075 7.35284 6.19181 8.10185 6.19181 9.62483C6.19181 11.1478 7.30284 12.6209 7.45264 12.8206C7.60244 13.0328 9.63725 16.1537 12.7332 17.4894C13.4697 17.814 14.0439 18.0013 14.4933 18.1386C15.2298 18.3758 15.904 18.3383 16.4407 18.2634C17.04 18.176 18.2758 17.5144 18.5255 16.7904C18.7876 16.0663 18.7876 15.4546 18.7003 15.3173C18.6129 15.18 18.4256 15.1176 18.1135 14.9678Z" fill="#F20C25"/>
</svg>
